<?xml version="1.0" encoding="UTF-8"?>
<svg id="Layer_1" xmlns="http://www.w3.org/2000/svg" version="1.1" viewBox="0 0 150 57.1">
  <!-- Generator: Adobe Illustrator 29.1.0, SVG Export Plug-In . SVG Version: 2.1.0 Build 142)  -->
  <defs>
    <style>
      .st0 {
        fill: #036;
      }

      .st1 {
        fill: #d50032;
      }

      .st2 {
        fill: #231f20;
      }

      .st3 {
        fill: #ff5f05;
      }
    </style>
  </defs>
  <rect class="st2" x="30.1" y="0" width=".6" height="57.2"/>
  <g>
    <path class="st1" d="M6.4,21.3c-3.7,0-6.6,3-6.6,6.6s3,6.6,6.6,6.6,6.6-3,6.6-6.6-3-6.6-6.6-6.6ZM5.1,28.5c0,.6,0,.9-.2,1.2-.3.5-1,.7-1.7.7s-1.4-.2-1.7-.7c-.2-.3-.2-.6-.2-1.2v-2.5h1.3v2.6c0,.3,0,.5.1.6.1.1.3.2.5.2s.4,0,.5-.2c.1-.1.1-.3.1-.6v-2.6h1.3v2.5ZM7.2,30.3h-1.3v-4.3h1.3v4.3ZM11.9,27.1l-1.1.5c-.1-.4-.3-.7-.7-.7s-.8.5-.8,1.2.3,1.2.8,1.2.6-.2.7-.5l1.2.4c-.3.7-.9,1.2-1.9,1.2s-2.1-.9-2.1-2.2.8-2.2,2.2-2.2,1.6.6,1.8,1.2h0Z"/>
    <g>
      <path class="st0" d="M2.6,53.2v1.2c0,.2,0,.3,0,.5,0,.2.1.5.3.6,0,0,0,0,0,0,.1.2.4.3.6.4.4,0,.8,0,1.1,0,.2,0,.4-.2.5-.3.1-.1.3-.3.3-.6,0-.1,0-.2,0-.4,0,0,0-.1,0-.2,0-.5,0-1.1,0-1.6s0-.3,0-.4c0,0,0-.1,0-.1,0,0,0,0,0,0,0,0,.1,0,.2,0,0,0,.1,0,.2,0,0,0,0,0,0,0h0c0,0-1.3,0-1.3,0h0c0,0,0,0,0,0,0,0,.1,0,.2,0,.2,0,.3.1.3.3,0,.1,0,.2,0,.3v1.6c0,.1,0,.3,0,.5,0,.3-.2.5-.4.7,0,0-.1,0-.2,0-.3,0-.5,0-.8,0,0,0,0,0,0,0,0,0-.2,0-.2-.1-.1,0-.2-.2-.3-.3,0,0,0,0,0-.1,0,0,0,0,0-.1,0-.1,0-.2,0-.3v-2h0c0-.1,0-.1,0-.2,0,0,0-.1,0-.2,0,0,0,0,0,0,0,0,0,0,.1,0,0,0,0,0,0,0,0,0,.1,0,.2,0h0c0,0-1.6,0-1.6,0h0c0,.1,0,.1.1.1,0,0,.1,0,.2,0,.1,0,.2.2.2.4h0v.6h0Z"/>
      <path class="st0" d="M1.7,51.7h9.4c0,0,.1,0,.1,0,0,0,0,0,0-.1v-.5c0-.2,0-.2-.2-.2H1.7c-.1,0-.1,0-.2,0,0,0,0,0,0,0v.5c0,.2,0,.2.2.2Z"/>
      <path class="st0" d="M8.2,55.8s0,0,0,0c0,0,0,0,.1,0,0,0,.2,0,.2,0,0,0,.2,0,.3,0,.2,0,.4,0,.7,0,.4,0,.7-.3.8-.7,0-.2,0-.4,0-.6h0c0-.3-.2-.4-.4-.6-.2-.1-.3-.2-.5-.3-.1,0-.2-.1-.3-.2,0,0,0,0-.1-.1,0,0-.2-.1-.3-.2,0,0-.1-.2-.2-.3,0,0,0-.2,0-.3,0,0,0,0,0,0,0,0,0,0,0,0,0-.2.3-.3.6-.3.4,0,.7.2.9.6,0,.1,0,.2.1.4h.1c0-.1,0-.3,0-.4,0-.3,0-.5,0-.8h0s0,0,0,0c0,0,0,0,0,0,0,.1-.1.1-.2.1-.1,0-.2,0-.3-.1,0,0-.2,0-.3,0,0,0,0,0,0,0-.1,0-.2,0-.3,0-.2,0-.4.2-.6.4s-.2.4-.2.7c0,.3.2.5.4.7,0,0,0,0,0,0,.2.2.5.3.7.5.2.1.4.2.5.4,0,0,0,0,0,.1,0,0,0,0,0,.1,0,.1,0,.2,0,.3,0,0,0,0,0,.1s0,0,0,.1c0,.1-.2.2-.3.3,0,0-.1,0-.2,0,0,0-.1,0-.2,0-.2,0-.4-.1-.6-.3-.2-.2-.3-.4-.4-.7h0s0,0,0,0c0,0,0,0-.1,0h0c0,.4.1.8.2,1.2,0,0,.1,0,.1,0h0Z"/>
      <path class="st0" d="M11.1,56.2H1.7c-.1,0-.1,0-.1.1v.6c0,.1,0,.2.2.2h9.4c.1,0,.2,0,.2-.2v-.5c0-.2,0-.2-.2-.2Z"/>
      <path class="st0" d="M6.2,55.9h1.7c0,0,0-.1-.1-.1,0,0-.1,0-.2,0,0,0-.1,0-.2-.1,0,0,0,0,0-.1,0,0,0-.2,0-.3v-2.6c0,0,0-.2,0-.3,0-.2,0-.2.3-.3,0,0,.1,0,.2,0,0,0,0,0,0,0h0s0,0,0,0h-1.7c.1.1.2.1.3.1.1,0,.2,0,.2.2,0,0,0,0,0,0,0,0,0,.1,0,.2v2.6c0,0,0,.1,0,.2h0c0,.1,0,.2,0,.2,0,.1-.1.1-.3.2,0,0-.2,0-.3,0h0s0,0,0,0h0Z"/>
      <path class="st0" d="M2.2,50.5h8.5c.1,0,.1,0,.1-.1v-.5c0-.1,0-.1-.1-.1h-.2c0-.4-.1-.8-.2-1.2-.2-.8-.4-1.5-.9-2.2s-1-1.2-1.8-1.5c0,0-.2,0-.2,0,0,0,0-.1,0-.2s0-.1-.1-.1c0,0,0,0,0,0v-.9s0,0,0,0c.2,0,.2,0,.2-.1,0-.2,0-.2-.2-.3,0,0,0,0,0,0,0-.2,0-.4-.2-.5-.1-.2-.3-.3-.5-.2-.2,0-.4.2-.5.4,0,.1-.1.3-.2.5-.2,0-.2,0-.2.1q0,.2.2.3v1.1c-.1,0-.2.1-.2.3,0,.2,0,0,0,0,0,0,0,0,0,.1-.2,0-.5.2-.7.3-.6.3-1,.8-1.4,1.4-.5.9-.8,1.9-.9,2.9,0,.2,0,.2-.3.2s-.1,0-.1.1v.5c0,.1,0,.1.1.1h0ZM7.2,45.2c.1,0,.2.2.3.3.7.6,1.1,1.4,1.3,2.3.2.6.3,1.2.3,1.8,0,0,0,0,0,0,0,0,0,0,0,0,0,0,0,0,0-.1,0-.2,0-.4,0-.7-.1-.9-.4-1.7-.8-2.5-.2-.4-.5-.8-.9-1.2,0,0,0,0,0,0,0,0,0,0,0,0h0ZM7.5,48.3c0,.4,0,.8,0,1.3h0c0,0,0,.1,0,.1,0,0,0,0,0-.1,0-.1,0-.3,0-.5,0-.8-.1-1.6-.3-2.4-.1-.5-.3-1-.4-1.5,0,0,0,0,0-.1,0,0,0,0,0,0,.1.3.2.5.3.8.2.7.4,1.5.5,2.3h0ZM6.5,44.3v-.6s0,0,0-.1c0,0,0-.2.2-.2,0,0,.2,0,.2.2v.8h-.4v-.2h0ZM5.9,44.3v-.6c0-.1,0-.2.2-.2s.2,0,.2.2v.8h-.4v-.2ZM5.7,46.3c.1-.3.2-.6.4-1,0,0,0,0,0,0h0c0,.2-.1.3-.1.5-.2.8-.4,1.7-.5,2.6,0,.5,0,.9-.1,1.4,0,0,0,0,0,.1,0,0,0,0-.1,0,0,0,0,0,0,0,0-1.1.1-2.3.5-3.4ZM3.7,49.1c0-.7.3-1.4.5-2.1.3-.7.7-1.3,1.3-1.7,0,0,0,0,0,0,0,0,0,0,0,0-.5.4-.8.9-1.1,1.4-.3.5-.4,1-.5,1.5-.1.5-.2,1-.2,1.5,0,0,0,0,0,0,0,0,0,0,0,0,0,0,0,0,0,0,0-.2,0-.4,0-.6h0Z"/>
    </g>
    <polygon class="st3" points="2 3.3 4 3.3 4 9.2 2 9.2 2 12.6 10.8 12.6 10.8 9.2 8.9 9.2 8.9 3.3 10.8 3.3 10.8 0 2 0 2 3.3"/>
  </g>
  <g>
    <path class="st2" d="M57.9.6h0c.6,0,1.3,0,2.3,0s1.9,0,2.5-.1h0v.7h0c-.8,0-1.4.2-1.6.3-.2.2-.3.4-.3,5.2v2.8c0,3.9-1.9,5.8-6.1,5.8s-5.7-1.2-5.7-4.9v-3.8c0-4.8,0-5-.3-5.2-.2-.2-.8-.3-1.6-.3h0v-.7h0c1,0,2,0,3,0s2,0,3-.1h0v.7h0c-.8,0-1.4.2-1.6.3-.2.2-.3.4-.3,5.2v3.4c0,1.7.9,3.7,4.1,3.7s4.4-1.4,4.4-4.2v-2.9c0-4.8,0-5-.3-5.2-.2-.2-.8-.3-1.6-.3h0v-.7h0Z"/>
    <path class="st2" d="M63.9,6.7c0-.6,0-1.1-.1-1.2,0-.2-.2-.2-.6-.3h-.6v-.6c.6,0,1.2,0,1.8,0s.9,0,1.3,0c.5.7,1,1.4,1.6,2l4.8,5.6v-5.5c0-.6,0-1.1-.1-1.2,0-.2-.2-.2-.6-.3h-.6v-.6c.6,0,1.2,0,1.8,0s1.2,0,1.7,0v.6h-.6c-.4,0-.6.2-.6.3,0,.2-.1.6-.1,1.2v7c0,.5,0,1.1,0,1.6h-.1c0,0-1.3-.1-1.3-.1-.6-.7-1.3-1.4-1.9-2.1l-5-6h0v6c0,.6,0,1.1.1,1.2,0,.2.2.2.6.3h.6v.6c-.6,0-1.2,0-1.7,0s-1.2,0-1.8,0v-.6h.6c.4,0,.6-.2.6-.3,0-.2.1-.6.1-1.2,0,0,0-6.3,0-6.3Z"/>
    <path class="st2" d="M79,12.9c0,.6,0,1.1.1,1.2,0,.1.2.2.6.2h.6v.7c-.6,0-1.5,0-2.4,0s-1.8,0-2.4,0v-.6h.6c.4,0,.6-.1.6-.3,0-.2.1-.6.1-1.2v-6.3c0-.6,0-1.1-.1-1.2,0-.1-.2-.2-.6-.2h-.6v-.7c.6,0,1.5,0,2.4,0s1.7,0,2.4,0v.6h-.6c-.4,0-.6.1-.6.3,0,.2-.1.6-.1,1.2v6.3Z"/>
    <path class="st2" d="M88,12.5l2.2-5.4c.3-.6.5-1.2.5-1.5s-.3-.4-.6-.4h-.7v-.6c.8,0,1.3,0,1.8,0s1,0,1.8,0v.6h-.5c-.3,0-.5.3-.7.8l-3.2,7.6c-.2.5-.4,1-.6,1.5h-1.2l-3.7-8.8c-.2-.4-.4-1.1-1-1.1h-.6v-.6c1,0,1.8,0,2.4,0s1.4,0,2.5,0v.6h-.8c-.2,0-.4.2-.4.3,0,.3.2.8.3,1.1l2.4,5.9h0Z"/>
    <path class="st2" d="M97.5,9.2c.4,0,.7,0,1,0h1c.5,0,.8,0,.9-.3v-.9h.7c0,.6,0,1.1,0,1.6s0,1.1,0,1.7h-.6v-.8c-.1-.4-.4-.6-1-.6h-1c-.3,0-.7,0-1,0v4.1c.6,0,1.3,0,2,0s1.8-.1,1.9-.3l.4-1.4h.6l-.2,2.4h0c-.6.2-1.5.2-2.4.2s-1,0-1.4,0c-.6,0-1.3,0-1.9,0s-1.3,0-1.8,0v-.4l.5-.3c.2-.1.3-.4.3-.9v-6.9c0-.6,0-1.1-.1-1.2,0-.2-.2-.2-.6-.3h-.6v-.6c.5,0,.9,0,1.3,0,.4,0,.8,0,1,0,1.4,0,2.5,0,3.4,0,.3,0,.6,0,.8,0,.5,0,1,0,1.4,0h0c0,.1-.2,2.3-.2,2.3h-.6v-1.2c-.2-.2-1.2-.3-1.9-.3s-1.3,0-2,0v3.7h0Z"/>
    <path class="st2" d="M104.7,6.7c0-.6,0-1.1-.1-1.2,0-.2-.2-.2-.6-.3h-.6v-.6c1,0,1.8,0,2.6,0s2.1,0,3.1,0h.1c1.5,0,2.9.5,2.9,2.3s-1,2.3-2.3,2.7l2.8,4.2c.1.2.3.3.4.5.1.1.3.2.6.2v.6c-.5,0-1,0-1.5,0s-.9,0-1.4,0l-3.4-5.3v-.3c.2,0,.3,0,.4,0,1.3,0,2.2-.9,2.2-2.2s-.9-1.9-2.1-1.9-.7,0-1,.1v7.5c0,.6,0,1.1.1,1.2,0,.1.2.2.6.2h.6v.7c-.6,0-1.5,0-2.4,0s-1.8,0-2.4,0v-.6h.6c.4,0,.6-.1.6-.3,0-.2.1-.6.1-1.2v-6.3h0Z"/>
    <path class="st2" d="M115.8,11.9v1.3c.5.7,1.7,1.2,2.5,1.2,1.3,0,2.4-.7,2.4-2s-.4-1.2-1.3-1.4l-2.1-.6c-1.3-.4-2.2-1.3-2.2-2.6,0-2.5,1.8-3.4,4.1-3.4s2,.2,2.9.5v.2c0,.5-.1,1.4-.1,2.2h-.6v-1.3c-.6-.5-1.4-.8-2.1-.8-1.4,0-2.1.8-2.1,1.9s.5,1.2,1.6,1.5l1.7.5c1.4.4,2.3,1.3,2.3,2.6,0,2.6-2.2,3.7-4.5,3.7s-2.2-.2-3.2-.7c.2-.9.2-1.8.2-2.7h.6Z"/>
    <path class="st2" d="M127.2,12.9c0,.6,0,1.1.1,1.2,0,.1.2.2.6.2h.6v.7c-.6,0-1.5,0-2.4,0s-1.8,0-2.4,0v-.6h.6c.4,0,.6-.1.6-.3,0-.2.1-.6.1-1.2v-6.3c0-.6,0-1.1-.1-1.2,0-.1-.2-.2-.6-.2h-.6v-.7c.6,0,1.5,0,2.4,0s1.7,0,2.4,0v.6h-.6c-.4,0-.6.1-.6.3,0,.2-.1.6-.1,1.2v6.3Z"/>
    <path class="st2" d="M135.6,12.9c0,.6,0,1.1.1,1.2,0,.1.2.2.6.2h.6v.7c-.6,0-1.5,0-2.4,0s-1.8,0-2.4,0v-.6h.6c.4,0,.6-.1.6-.3,0-.2.1-.6.1-1.2v-7.4h-1.8c-.4,0-.8,0-.9.1,0,0-.1.2-.1.4v1.1h-.7c0-1,0-1.7-.2-2.4h0c1.6,0,3.2,0,4.8,0s3.2,0,4.8,0h0c-.1.8-.2,1.5-.2,2.5h-.6v-1.1c0-.2-.2-.3-.2-.4-.1-.1-.5-.1-1-.1h-1.8v7.4h0Z"/>
    <path class="st2" d="M149,4.6h1.2v.3l-2.7,4c-.3.5-.6,1-.8,1.5v2.5c0,.6,0,1.1.1,1.2,0,.1.2.2.6.2h.6v.7c-.6,0-1.5,0-2.4,0s-1.8,0-2.4,0v-.6h.6c.4,0,.6-.1.6-.3,0-.2.1-.6.1-1.2v-2.1c-.3-.7-.5-1-.7-1.3l-1.6-2.5c-.2-.3-.5-.7-.8-1-.4-.4-.7-.5-1.2-.5v-.6l2.4-.6c.8.5,1.3,1.3,1.7,2.1l1.6,3.1,2.9-4.9h0Z"/>
    <path class="st2" d="M58.8,30.3c0,3.6-2.3,5.6-5.8,5.6s-5.5-1.9-5.5-5.4,2.3-5.6,5.8-5.6,5.5,1.9,5.5,5.4ZM49.7,30.2c0,2.5,1.1,4.8,3.2,4.8s3.5-2.1,3.5-4.4-1.1-4.8-3.2-4.8-3.5,2.1-3.5,4.4h0Z"/>
    <path class="st2" d="M63.2,29.8c.4,0,.7,0,1,0h.8c.5,0,.8,0,.9-.3v-.8h.7c0,.5,0,1,0,1.6s0,1.1,0,1.7h-.6v-.8c-.1-.4-.4-.6-1-.6h-.8c-.3,0-.7,0-1,0v2.9c0,.6,0,1.1.1,1.2,0,.1.2.2.6.2h.7v.7c-.8,0-1.6,0-2.5,0s-1.8,0-2.4,0v-.6h.6c.4,0,.6-.1.6-.3,0-.2.1-.6.1-1.2v-6.3c0-.6,0-1.1-.1-1.2,0-.2-.2-.2-.6-.3h-.6v-.6c.5,0,.9,0,1.3,0,.4,0,.8,0,1,0,1.2,0,2.2,0,3.1,0,.3,0,.6,0,.8,0,.5,0,1,0,1.4,0h0c0,.1-.2,2.3-.2,2.3h-.6v-1.2c-.2-.2-1.2-.3-1.9-.3s-1.1,0-1.7,0v3.7h0Z"/>
    <path class="st2" d="M72.2,21.2h0c1,0,2,0,3,0s2,0,3-.1h0v.7h0c-.8,0-1.4.2-1.6.3-.2.2-.3.4-.3,5.2v2.1c0,4.8,0,5,.3,5.2.2.2.8.3,1.6.3h0v.7h0c-1,0-2,0-3,0s-2,0-3,.1h0v-.7h0c.8,0,1.4-.2,1.6-.3.2-.2.3-.4.3-5.2v-2.1c0-4.8,0-5-.3-5.2-.2-.2-.8-.3-1.6-.3h0c0,0,0-.7,0-.7Z"/>
    <path class="st2" d="M83,34.7c.6,0,1.3,0,2,0s1.8-.1,1.9-.3l.4-1.6h.6l-.2,2.5h0c-.6.2-1.5.2-2.4.2s-1,0-1.4,0c-.6,0-1.3,0-1.9,0s-1.3,0-1.8,0v-.4l.5-.3c.2-.1.3-.4.3-.9v-6.9c0-.6,0-1.1-.1-1.2,0-.1-.2-.2-.6-.2h-.6v-.7c.6,0,1.5,0,2.4,0s1.7,0,2.4,0v.6h-.6c-.4,0-.6.1-.6.3,0,.2-.1.6-.1,1.2v7.4h0Z"/>
    <path class="st2" d="M92.2,34.7c.6,0,1.3,0,2,0s1.8-.1,1.9-.3l.4-1.6h.6l-.2,2.5h0c-.6.2-1.5.2-2.4.2s-1,0-1.4,0c-.6,0-1.3,0-1.9,0s-1.3,0-1.8,0v-.4l.5-.3c.2-.1.3-.4.3-.9v-6.9c0-.6,0-1.1-.1-1.2,0-.1-.2-.2-.6-.2h-.6v-.7c.6,0,1.5,0,2.4,0s1.7,0,2.4,0v.6h-.6c-.4,0-.6.1-.6.3,0,.2-.1.6-.1,1.2v7.4h0Z"/>
    <path class="st2" d="M101.7,33.5c0,.6,0,1.1.1,1.2,0,.1.2.2.6.2h.6v.7c-.6,0-1.5,0-2.4,0s-1.8,0-2.4,0v-.6h.6c.4,0,.6-.1.6-.3,0-.2.1-.6.1-1.2v-6.3c0-.6,0-1.1-.1-1.2,0-.1-.2-.2-.6-.2h-.6v-.7c.6,0,1.5,0,2.4,0s1.7,0,2.4,0v.6h-.6c-.4,0-.6.1-.6.3,0,.2-.1.6-.1,1.2v6.3Z"/>
    <path class="st2" d="M105.5,27.2c0-.6,0-1.1-.1-1.2,0-.2-.2-.2-.6-.3h-.6v-.6c.6,0,1.2,0,1.8,0s.9,0,1.3,0c.5.7,1,1.4,1.6,2l4.8,5.6v-5.5c0-.6,0-1.1-.1-1.2,0-.2-.2-.2-.6-.3h-.6v-.6c.6,0,1.2,0,1.8,0s1.2,0,1.7,0v.6h-.6c-.4,0-.6.2-.6.3,0,.2-.1.6-.1,1.2v7c0,.5,0,1.1,0,1.6h-.1c0,0-1.3-.1-1.3-.1-.6-.7-1.3-1.4-1.9-2.1l-5-6h0v6c0,.6,0,1.1.1,1.2,0,.2.2.2.6.3h.6v.6c-.6,0-1.2,0-1.7,0s-1.2,0-1.8,0v-.6h.6c.4,0,.6-.2.6-.3,0-.2.1-.6.1-1.2v-6.3h0Z"/>
    <path class="st2" d="M128.2,30.3c0,3.6-2.3,5.6-5.8,5.6s-5.5-1.9-5.5-5.4,2.3-5.6,5.8-5.6,5.5,1.9,5.5,5.4ZM119.2,30.2c0,2.5,1.1,4.8,3.2,4.8s3.5-2.1,3.5-4.4-1.1-4.8-3.2-4.8-3.5,2.1-3.5,4.4h0Z"/>
    <path class="st2" d="M132.7,33.5c0,.6,0,1.1.1,1.2,0,.1.2.2.6.2h.6v.7c-.6,0-1.5,0-2.4,0s-1.8,0-2.4,0v-.6h.6c.4,0,.6-.1.6-.3,0-.2.1-.6.1-1.2v-6.3c0-.6,0-1.1-.1-1.2,0-.1-.2-.2-.6-.2h-.6v-.7c.6,0,1.5,0,2.4,0s1.7,0,2.4,0v.6h-.6c-.4,0-.6.1-.6.3,0,.2-.1.6-.1,1.2v6.3Z"/>
    <path class="st2" d="M136.2,32.5v1.3c.5.7,1.7,1.2,2.5,1.2,1.3,0,2.4-.7,2.4-2s-.4-1.2-1.3-1.4l-2.1-.6c-1.3-.4-2.2-1.3-2.2-2.6,0-2.5,1.8-3.4,4.1-3.4s2,.2,2.9.5v.2c0,.5-.1,1.4-.1,2.2h-.6v-1.3c-.6-.5-1.4-.8-2.1-.8-1.4,0-2.1.8-2.1,1.9s.5,1.2,1.6,1.5l1.7.5c1.4.4,2.3,1.3,2.3,2.6,0,2.6-2.2,3.7-4.5,3.7s-2.2-.2-3.2-.7c.2-.9.2-1.8.2-2.7h.6Z"/>
    <path class="st2" d="M48.7,52.5h0c0,.8,0,1.1,0,1.5,0,.3,1,1.5,3.4,1.5s3.8-1.2,3.8-3.2c0-4.2-8.2-.5-8.2-6.2s2.1-4.6,5.6-4.6,2.9.3,3.9.9h0c-.2.9-.4,2.4-.4,3h0c0,0-.7,0-.7,0h0c0-1.3,0-1.5-.1-1.7-.3-.4-1.4-1-2.9-1-2.2,0-3.3,1.3-3.3,2.8s1,2.2,4.4,2.7c2.4.4,3.8,1.2,3.8,3.4s-1.8,5.1-6.3,5.1-3.1-.4-3.9-.9h0c.1-1.1.2-2.2.2-3.1h0c0,0,.7,0,.7,0h0Z"/>
    <path class="st2" d="M66.8,45.7h1.2v.3l-2.7,4c-.3.5-.6,1-.8,1.5v2.5c0,.6,0,1.1.1,1.2,0,.1.2.2.6.2h.6v.7c-.6,0-1.5,0-2.4,0s-1.8,0-2.4,0v-.6h.6c.4,0,.6-.1.6-.3,0-.2.1-.6.1-1.2v-2.1c-.3-.7-.5-1-.7-1.3l-1.6-2.5c-.2-.3-.5-.7-.8-1-.4-.4-.7-.5-1.2-.5v-.6l2.4-.6c.8.5,1.3,1.3,1.7,2.1l1.6,3.1,2.9-4.9h0Z"/>
    <path class="st2" d="M69.5,53v1.3c.5.7,1.7,1.2,2.5,1.2,1.3,0,2.4-.7,2.4-2s-.4-1.2-1.3-1.4l-2.1-.6c-1.3-.4-2.2-1.3-2.2-2.6,0-2.5,1.8-3.4,4.1-3.4s2,.2,2.9.5v.2c0,.5-.1,1.4-.1,2.2h-.6v-1.3c-.6-.5-1.4-.8-2.1-.8-1.4,0-2.1.8-2.1,1.9s.5,1.2,1.6,1.5l1.7.5c1.4.4,2.3,1.3,2.3,2.6,0,2.6-2.2,3.7-4.5,3.7s-2.2-.2-3.2-.7c.2-.9.2-1.8.2-2.7h.6,0Z"/>
    <path class="st2" d="M83.2,54.1c0,.6,0,1.1.1,1.2,0,.1.2.2.6.2h.6v.7c-.6,0-1.5,0-2.4,0s-1.8,0-2.4,0v-.6h.6c.4,0,.6-.1.6-.3,0-.2.1-.6.1-1.2v-7.4h-1.8c-.4,0-.8,0-.9.1,0,0-.1.2-.1.4v1.1h-.7c0-1,0-1.7-.2-2.4h0c1.6,0,3.2,0,4.8,0s3.2,0,4.8,0h0c-.1.8-.2,1.5-.2,2.5h-.6v-1.1c0-.2-.2-.3-.2-.4-.1-.1-.5-.1-1-.1h-1.8v7.4Z"/>
    <path class="st2" d="M91.5,50.3c.4,0,.7,0,1,0h1c.5,0,.8,0,.9-.3v-.9h.7c0,.6,0,1.1,0,1.6s0,1.1,0,1.7h-.6v-.8c-.1-.4-.4-.6-1-.6h-1c-.3,0-.7,0-1,0v4.1c.6,0,1.3,0,2,0s1.8-.1,1.9-.3l.4-1.4h.6l-.2,2.4h0c-.6.2-1.5.2-2.4.2s-1,0-1.4,0c-.6,0-1.3,0-1.9,0s-1.3,0-1.8,0v-.4l.5-.3c.2-.1.3-.4.3-.9v-6.9c0-.6,0-1.1-.1-1.2,0-.2-.2-.2-.6-.3h-.6v-.6c.5,0,.9,0,1.3,0,.4,0,.8,0,1,0,1.4,0,2.5,0,3.4,0,.3,0,.6,0,.8,0,.5,0,1,0,1.4,0h0c0,.1-.2,2.3-.2,2.3h-.6v-1.2c-.2-.2-1.2-.3-1.9-.3s-1.3,0-2,0v3.7h0Z"/>
    <path class="st2" d="M110.5,54.1c0,.6,0,1.1.1,1.2,0,.1.2.2.6.2h.6v.7c-.6,0-1.5,0-2.4,0s-1.8,0-2.4,0v-.6h.6c.4,0,.6-.1.6-.3,0-.2.1-.6.1-1.2v-6.3h0l-3.1,6.5c-.3.7-.7,1.4-.9,2h-.5c-.2-.4-.4-.8-.6-1.3l-3.5-7.3h0v6.3c0,.6,0,1.1.1,1.2,0,.2.2.2.6.3h.6v.6c-.6,0-1.2,0-1.7,0s-1.2,0-1.8,0v-.6h.6c.4,0,.6-.2.6-.3,0-.2.1-.6.1-1.2v-6.3c0-.6,0-1.1-.1-1.2,0-.2-.2-.2-.6-.3h-.6v-.6c.6,0,1.2,0,1.8,0s1.2,0,1.8,0c.3.6.8,1.8,1.2,2.5l2.4,5.1,2.8-5.8c.3-.6.5-1.2.8-1.7.8,0,1.3,0,1.8,0s1,0,1.8,0v.6h-.6c-.4,0-.6.2-.6.3,0,.2-.1.6-.1,1.2v6.3h0Z"/>
  </g>
</svg>