<svg id="Layer_1" data-name="Layer 1" xmlns="http://www.w3.org/2000/svg" viewBox="0 0 252 95.89"><defs><style>.cls-1{fill:#fff;}</style></defs><rect class="cls-1" x="50.81" y="0.04" width="1.01" height="95.85"/><path class="cls-1" d="M11.08,35.87A11.08,11.08,0,1,0,22.15,47,11.08,11.08,0,0,0,11.08,35.87ZM8.92,47.94a3.54,3.54,0,0,1-.39,2A3.4,3.4,0,0,1,5.66,51c-1.11,0-2.39-.31-2.87-1.11a3.63,3.63,0,0,1-.39-2V43.67H4.57V48a1.57,1.57,0,0,0,.24,1,1.05,1.05,0,0,0,.85.29A1,1,0,0,0,6.51,49a1.56,1.56,0,0,0,.25-1V43.67H8.92Zm3.49,3H10.24V43.67h2.17Zm7.78-5.42-1.88.9a1.25,1.25,0,0,0-1.25-1.11c-.92,0-1.39.76-1.39,2s.47,2,1.39,2a1.2,1.2,0,0,0,1.21-.9l2,.7a3.23,3.23,0,0,1-3.19,2,3.42,3.42,0,0,1-3.59-3.74,3.45,3.45,0,0,1,3.63-3.73A3.16,3.16,0,0,1,20.19,45.48Z"/><path class="cls-1" d="M4.69,89.19q0,1,0,2a7.89,7.89,0,0,0,0,.84,2.17,2.17,0,0,0,.43,1s0,0,0,.06a2,2,0,0,0,1,.61,3.67,3.67,0,0,0,1.89,0A2.1,2.1,0,0,0,9,93.25a1.9,1.9,0,0,0,.51-1,6,6,0,0,0,.07-.61c0-.1,0-.2,0-.29,0-.88,0-1.77,0-2.65,0-.24,0-.48.07-.72a.41.41,0,0,1,.11-.25s0,0,0,0a.76.76,0,0,1,.28-.16l.34-.08.1,0a.81.81,0,0,1,0-.15H8.29v.15h0c.12,0,.24,0,.36.09a.56.56,0,0,1,.47.52,4.9,4.9,0,0,1,0,.54c0,.89,0,1.77,0,2.66a4.85,4.85,0,0,1,0,.76,1.45,1.45,0,0,1-.71,1.14,2.37,2.37,0,0,1-.32.15,2.46,2.46,0,0,1-1.32,0l-.12,0a1.35,1.35,0,0,1-.36-.18,1.19,1.19,0,0,1-.44-.57,1.31,1.31,0,0,1-.08-.21,1.6,1.6,0,0,1,0-.23,3.09,3.09,0,0,1-.07-.52c0-.76,0-1.51,0-2.27v-1a.38.38,0,0,1,0-.1,1.8,1.8,0,0,1,0-.22.54.54,0,0,1,.11-.29l0,0a.6.6,0,0,1,.24-.12l.13,0,.32-.06v-.15H3.82c0,.06,0,.11,0,.16h0l.21,0,.31.07c.25.1.33.28.33.66a.48.48,0,0,1,0,.12C4.68,88.63,4.69,88.91,4.69,89.19Z"/><path class="cls-1" d="M3.24,86.81H19c.15,0,.21,0,.24-.1a.37.37,0,0,0,0-.17v-.92c0-.29,0-.32-.32-.32H3.19c-.18,0-.26,0-.28.14a.66.66,0,0,0,0,.15v.88C2.9,86.78,2.93,86.81,3.24,86.81Z"/><path class="cls-1" d="M14.07,93.7a.23.23,0,0,1,.12-.16.3.3,0,0,1,.21,0l.4.13.45.13a2.72,2.72,0,0,0,1.1,0,1.79,1.79,0,0,0,1.34-1.08,1.81,1.81,0,0,0,0-1.06h0a1.69,1.69,0,0,0-.72-1c-.28-.2-.57-.38-.86-.56l-.56-.37c-.08,0-.16-.12-.24-.18a3.56,3.56,0,0,1-.42-.32.91.91,0,0,1-.28-.48.9.9,0,0,1,0-.46.88.88,0,0,1,.05-.15s0,0,0,0a1,1,0,0,1,1-.45,1.74,1.74,0,0,1,1.44,1c.09.2.16.41.24.61h.2c0-.22,0-.44-.07-.66,0-.44-.09-.89-.13-1.32H17.3c-.07,0-.1,0-.12,0l0,.08a.27.27,0,0,1-.38.17q-.29-.08-.57-.18a2,2,0,0,0-.48-.09l-.06,0a2.12,2.12,0,0,0-.56,0,1.59,1.59,0,0,0-1.29,1.72,1.5,1.5,0,0,0,.62,1.11l.05,0c.38.27.78.5,1.16.76a7.39,7.39,0,0,1,.85.62.67.67,0,0,1,.16.18.78.78,0,0,1,.11.2,1,1,0,0,1,.08.58,1.7,1.7,0,0,1,0,.22,1.36,1.36,0,0,1-.1.21.92.92,0,0,1-.49.42.89.89,0,0,1-.28.07,1.53,1.53,0,0,1-.37,0,1.7,1.7,0,0,1-1-.43,2.65,2.65,0,0,1-.74-1.1h0a.23.23,0,0,0-.1-.14.21.21,0,0,0-.17,0h0c.09.66.19,1.32.28,2C14,93.86,14,93.84,14.07,93.7Z"/><path class="cls-1" d="M18.91,94.33H3.14c-.18,0-.24.07-.24.24v1c0,.25,0,.29.29.29H19c.25,0,.29,0,.29-.3v-.86C19.25,94.36,19.22,94.33,18.91,94.33Z"/><path class="cls-1" d="M10.7,93.84h2.85v-.15l-.19,0L13,93.59a.39.39,0,0,1-.3-.22.56.56,0,0,1-.07-.18,3.13,3.13,0,0,1,0-.44V88.43a3.13,3.13,0,0,1,0-.43.46.46,0,0,1,.44-.46,3,3,0,0,1,.32-.06l.15,0h0c0-.06,0-.1,0-.15H10.7v.14l.55.11a.41.41,0,0,1,.34.35.53.53,0,0,1,0,.13,1.55,1.55,0,0,1,0,.31V92.7a2.64,2.64,0,0,1,0,.28.57.57,0,0,1,0,.13,1.12,1.12,0,0,1,0,.21c-.06.18-.19.25-.44.3l-.44.07h0A.81.81,0,0,1,10.7,93.84Z"/><path class="cls-1" d="M4,84.81H18.16c.19,0,.24-.06.25-.23v-.83c0-.17-.07-.24-.24-.24H17.8c-.13-.67-.23-1.33-.38-2a11.11,11.11,0,0,0-1.48-3.72,5.7,5.7,0,0,0-3-2.42c-.11,0-.28,0-.33-.12s0-.25,0-.37-.05-.24-.21-.24-.13,0-.13-.14V73s0-.09,0-.13c.3,0,.34-.06.35-.24,0-.34,0-.36-.33-.43l0-.16a1.75,1.75,0,0,0-.36-.85,1,1,0,0,0-.87-.39,1,1,0,0,0-.84.63,7.92,7.92,0,0,0-.26.78c-.27,0-.29.06-.3.25,0,.34,0,.34.34.42v1.77c-.33.1-.33.1-.33.45,0,0,0,0,0,.06s0,.15-.13.19a9.4,9.4,0,0,0-1.18.48A6,6,0,0,0,6,78.19a13.59,13.59,0,0,0-1.55,4.93c-.06.39,0,.39-.44.39-.19,0-.24.06-.24.25s0,.54,0,.81S3.8,84.81,4,84.81Zm8.46-8.92.57.5a8.06,8.06,0,0,1,2.21,3.83,13,13,0,0,1,.52,3,.3.3,0,0,1,0,.14s-.12.09-.13.07a.28.28,0,0,1-.13-.16c-.05-.37-.07-.74-.13-1.11A13.48,13.48,0,0,0,14,78a7.58,7.58,0,0,0-1.53-2l-.1-.06Zm.46,5.24c.06.7.11,1.41.16,2.11v0c0,.1,0,.21-.12.21s-.14-.1-.15-.19c0-.26,0-.51-.05-.76a24.94,24.94,0,0,0-.49-4c-.19-.81-.42-1.62-.63-2.43,0-.07-.05-.13-.07-.2l0,0c.18.46.36.92.51,1.38A17.29,17.29,0,0,1,12.92,81.13Zm-1.65-6.74v-1a1.09,1.09,0,0,1,0-.18.3.3,0,0,1,.31-.26.3.3,0,0,1,.28.29c0,.44,0,.89,0,1.36h-.61Zm-1,0c0-.34,0-.68,0-1a.29.29,0,0,1,.29-.32.3.3,0,0,1,.3.3c0,.45,0,.89,0,1.35h-.59ZM10,77.65c.17-.55.4-1.08.6-1.61,0-.05,0-.1.07-.14h0l-.24.8A22.31,22.31,0,0,0,9.59,81c-.07.76-.12,1.52-.18,2.28a.43.43,0,0,1-.06.17.1.1,0,0,1-.19,0,.31.31,0,0,1,0-.13A19.76,19.76,0,0,1,10,77.65ZM6.53,82.39a14,14,0,0,1,.91-3.48A7.37,7.37,0,0,1,9.64,76l.13-.1h.07A7.93,7.93,0,0,0,8,78.21a12.25,12.25,0,0,0-.89,2.55,14,14,0,0,0-.4,2.5s0,.08,0,.1-.1.11-.14.1a.19.19,0,0,1-.11-.14C6.48,83,6.49,82.7,6.53,82.39Z"/><polygon class="cls-1" points="3.75 5.7 7 5.7 7 15.47 3.75 15.47 3.75 21.18 18.41 21.18 18.41 15.47 15.15 15.47 15.15 5.7 18.41 5.7 18.41 0 3.75 0 3.75 5.7"/><path class="cls-1" d="M97.38,1.12l.11-.1a37.92,37.92,0,0,0,3.91.17c1.64,0,3.11-.1,4.19-.17l.11.1v1l-.11.1a5.28,5.28,0,0,0-2.69.46c-.38.34-.49.66-.49,8.76v4.72c0,6.53-3.24,9.71-10.23,9.71-5.45,0-9.61-2-9.61-8.14V11.46c0-8.1-.1-8.42-.49-8.76a5.25,5.25,0,0,0-2.69-.46l-.1-.1v-1l.1-.1c1.75.07,3.43.17,5.1.17s3.36-.1,5.1-.17l.11.1v1l-.11.1a5.31,5.31,0,0,0-2.69.46c-.38.34-.49.66-.49,8.76v5.73c0,2.94,1.44,6.19,7,6.19,5.17,0,7.3-2.31,7.3-7V11.46c0-8.1-.11-8.42-.49-8.76a5.28,5.28,0,0,0-2.69-.46l-.11-.1Z"/><path class="cls-1" d="M107.38,11.29a6.28,6.28,0,0,0-.18-2.08c-.13-.26-.39-.39-1-.44l-1-.07v-1c1,0,2.06.08,3.09.08.72,0,1.44-.05,2.16-.08.88,1.14,1.73,2.34,2.65,3.43l8,9.36V11.29a6.28,6.28,0,0,0-.18-2.08c-.13-.26-.39-.39-1.06-.44l-.95-.07v-1c1,0,2,.08,3,.08s2-.05,2.93-.08v1l-.95.07c-.67.05-.93.18-1.06.44a6.28,6.28,0,0,0-.18,2.08V23c0,.9.06,1.83.08,2.6l-.18.1-2.11-.33c-1-1.18-2.13-2.39-3.14-3.58l-8.33-10h0V21.79a6,6,0,0,0,.18,2.08c.13.26.38.39,1,.44l1,.08v.95c-1,0-2-.08-2.93-.08s-2,0-3,.08v-.95l1-.08c.66,0,.92-.18,1-.44a6.28,6.28,0,0,0,.18-2.08Z"/><path class="cls-1" d="M132.77,21.79a6,6,0,0,0,.18,2.08c.1.21.38.31,1.05.36l.95.08v1c-1,0-2.46-.08-4-.08s-3,0-4,.08v-1l1-.08c.66-.05,1-.15,1.05-.36a6.28,6.28,0,0,0,.18-2.08V11.29A6.28,6.28,0,0,0,129,9.21c-.1-.21-.39-.31-1.05-.36l-1-.08v-1c1.06,0,2.47.08,4,.08s2.93-.05,4-.08v1l-.95.08c-.67.05-.95.15-1.05.36a6,6,0,0,0-.18,2.08Z"/><path class="cls-1" d="M147.71,21.07,151.36,12a9.68,9.68,0,0,0,.8-2.52c0-.47-.44-.67-1-.7L150,8.7v-1c1.26,0,2.24.08,3,.08s1.69-.05,3-.08v1l-.82.07c-.57.05-.9.47-1.21,1.21l-5.35,12.81c-.36.85-.64,1.7-1,2.55h-1.95L139.5,10.62c-.31-.72-.72-1.77-1.59-1.85l-1.06-.07v-1c1.7,0,3,.08,4,.08s2.29-.05,4.22-.08v1l-1.28.07c-.39,0-.67.26-.67.49a5.94,5.94,0,0,0,.54,1.85Z"/><path class="cls-1" d="M163.65,15.49c.59,0,1.16,0,1.73,0h1.69c.9,0,1.42,0,1.47-.54l.15-1.47h1c0,.93-.08,1.83-.08,2.75s.06,1.86.08,2.78h-1l-.15-1.28c-.08-.72-.57-1-1.47-1h-1.69c-.57,0-1.14,0-1.73.08v6.87c1.08.05,2.19.08,3.29.08a8.61,8.61,0,0,0,3.14-.44l.59-2.42h1l-.29,4.07-.12.2c-1,.08-2.55.1-3.94.1-.9,0-1.75,0-2.39,0-1.06,0-2.11-.08-3.17-.08s-2.13,0-3.08.08v-.59l.82-.47c.41-.23.52-.66.52-1.46V11.29a5.93,5.93,0,0,0-.19-2.08c-.12-.26-.38-.39-1.05-.44l-.95-.07v-1c.85,0,1.59,0,2.26.06l1.75,0c2.42,0,4.17-.05,5.64-.08l1.36,0a23.27,23.27,0,0,1,2.39.1l.15.18L171,11.65h-.92l-.21-1.93c-.05-.38-1.77-.48-3-.48s-2.21,0-3.29.07Z"/><path class="cls-1" d="M175.85,11.29a6,6,0,0,0-.18-2.08c-.13-.26-.38-.39-1-.44l-1-.07v-1c1.69,0,3,.08,4.32.08,1.75,0,3.47-.05,5.22-.08h.23c2.52,0,4.81.85,4.81,3.81,0,2.26-1.7,3.78-3.83,4.55l4.65,7a3.78,3.78,0,0,0,.75.8,2.6,2.6,0,0,0,1.06.36v1c-.83,0-1.68-.08-2.5-.08s-1.54,0-2.31.08l-5.77-8.93.18-.46c.16,0,.29,0,.44,0a3.5,3.5,0,0,0,3.68-3.71c0-2.11-1.47-3.24-3.47-3.24a4.31,4.31,0,0,0-1.65.23V21.79a6.28,6.28,0,0,0,.18,2.08c.1.21.39.31,1.05.36l1,.08v1c-1.06,0-2.47-.08-4-.08s-3,0-4,.08v-1l1-.08c.67-.05.95-.15,1-.36a6,6,0,0,0,.18-2.08Z"/><path class="cls-1" d="M194.38,20.07l.18,2.26a5.3,5.3,0,0,0,4,2c2.19,0,4-1.16,4-3.4,0-1.1-.67-1.95-2.13-2.39l-3.61-1.08c-2.16-.64-3.75-2.16-3.75-4.37,0-4.12,3.06-5.69,6.79-5.69a13.27,13.27,0,0,1,4.78.88l.13.31a14.86,14.86,0,0,0-.36,3.65h-1.05l-.16-2.11a4.87,4.87,0,0,0-3.42-1.41c-2.39,0-3.52,1.38-3.52,3.11,0,1.16.82,2,2.73,2.49l2.93.77c2.36.62,3.88,2.11,3.88,4.43,0,4.37-3.62,6.2-7.54,6.2A12.49,12.49,0,0,1,193,24.52a22,22,0,0,0,.39-4.45Z"/><path class="cls-1" d="M213.5,21.79a6,6,0,0,0,.18,2.08c.1.21.39.31,1,.36l1,.08v1c-1.06,0-2.47-.08-4-.08s-3,0-4,.08v-1l.95-.08c.67-.05,1-.15,1.05-.36a6,6,0,0,0,.18-2.08V11.29a6,6,0,0,0-.18-2.08c-.1-.21-.38-.31-1.05-.36l-.95-.08v-1c1.05,0,2.47.08,4,.08s2.93-.05,4-.08v1l-1,.08c-.66.05-.95.15-1,.36a6,6,0,0,0-.18,2.08Z"/><path class="cls-1" d="M227.5,21.79a6,6,0,0,0,.18,2.08c.1.21.38.31,1,.36l1,.08v1c-1.06,0-2.47-.08-4-.08s-3,0-4,.08v-1l.95-.08c.66-.05,1-.15,1.05-.36a6,6,0,0,0,.18-2.08V9.34h-3c-.69,0-1.41,0-1.59.23a1,1,0,0,0-.23.62L218.91,12h-1a28.65,28.65,0,0,0-.34-4.09l.16-.13c2.7,0,5.37.08,8,.08s5.3-.05,8-.08l.16.13a28.65,28.65,0,0,0-.34,4.09h-1l-.12-1.77a1.12,1.12,0,0,0-.24-.62c-.18-.23-.9-.23-1.59-.23h-3Z"/><path class="cls-1" d="M250,7.82h2v.49L247.47,15a16.71,16.71,0,0,0-1.36,2.58v4.19a6,6,0,0,0,.18,2.08c.1.21.38.31,1.05.36l1,.08v1c-1.06,0-2.47-.08-4-.08s-3,0-4,.08v-1l.95-.08c.67-.05.95-.15,1.05-.36a6,6,0,0,0,.18-2.08V18.21A16.87,16.87,0,0,0,241.35,16l-2.6-4.2a15,15,0,0,0-1.34-1.72,2.38,2.38,0,0,0-2-.85V8.31l4.09-.93a8,8,0,0,1,2.93,3.5l2.75,5.22Z"/><path class="cls-1" d="M98.83,50.85c0,6.07-3.88,9.31-9.77,9.31s-9.26-3.13-9.26-9c0-6.07,3.88-9.31,9.77-9.31S98.83,45,98.83,50.85Zm-15.17-.13c0,4.25,1.77,8,5.4,8,4.78,0,5.92-3.55,5.92-7.41,0-4.24-1.78-8-5.41-8C84.79,43.29,83.66,46.86,83.66,50.72Z"/><path class="cls-1" d="M106.16,50c.59,0,1.16,0,1.72,0h1.31c.9,0,1.42,0,1.47-.54l.15-1.36h1c0,.82-.07,1.72-.07,2.65s0,1.85.07,2.77h-1l-.15-1.28c-.08-.72-.57-1-1.47-1h-1.31c-.56,0-1.13,0-1.72.07v4.81a6.08,6.08,0,0,0,.18,2.09c.1.2.38.31,1,.36l1.21.07v1c-1.31,0-2.72-.07-4.24-.07s-3,.05-4,.07v-1l1-.07c.67-.05,1-.16,1-.36a6.08,6.08,0,0,0,.18-2.09V45.76a6.08,6.08,0,0,0-.18-2.09c-.13-.25-.38-.38-1-.43l-1-.08v-.95c.84,0,1.59,0,2.26,0l1.75,0c2,0,3.75-.05,5.22-.07.49,0,.93,0,1.36,0,.85,0,1.6,0,2.4.1l.15.18-.36,3.66h-.93l-.2-1.93c0-.39-1.78-.49-3-.49-.69,0-1.8,0-2.88.08Z"/><path class="cls-1" d="M121.31,35.59l.1-.11c1.75.07,3.43.18,5.1.18s3.36-.11,5.1-.18l.11.11v1l-.11.11a5.34,5.34,0,0,0-2.69.45c-.38.35-.49.66-.49,8.77v3.53c0,8.1.11,8.41.49,8.76a5.31,5.31,0,0,0,2.69.46l.11.1v1l-.11.1c-1.74-.07-3.42-.17-5.1-.17s-3.35.1-5.1.17l-.1-.1v-1l.1-.1a5.25,5.25,0,0,0,2.69-.46c.39-.35.49-.66.49-8.76V45.93c0-8.11-.1-8.42-.49-8.77a5.29,5.29,0,0,0-2.69-.45l-.1-.11Z"/><path class="cls-1" d="M139.47,58.23c1.08.06,2.19.08,3.3.08a8.7,8.7,0,0,0,3.14-.44l.59-2.62h1l-.28,4.27-.13.21c-1,.07-2.55.1-3.94.1-.9,0-1.75,0-2.39,0-1,0-2.11-.07-3.16-.07s-2.14.05-3.09.07v-.59l.82-.46c.41-.23.52-.67.52-1.47V45.76a6.36,6.36,0,0,0-.18-2.09c-.11-.2-.39-.3-1.06-.36l-1-.07v-1c1.06,0,2.47.07,4,.07s2.94-.05,4-.07v1l-.95.07c-.67.06-1,.16-1.06.36a6.36,6.36,0,0,0-.18,2.09Z"/><path class="cls-1" d="M154.88,58.23c1.08.06,2.18.08,3.29.08a8.7,8.7,0,0,0,3.14-.44l.59-2.62h1l-.28,4.27-.13.21c-1,.07-2.55.1-3.94.1-.9,0-1.74,0-2.39,0-1,0-2.11-.07-3.16-.07s-2.14.05-3.09.07v-.59l.82-.46c.42-.23.52-.67.52-1.47V45.76a6.36,6.36,0,0,0-.18-2.09c-.1-.2-.39-.3-1.06-.36l-.95-.07v-1c1.06,0,2.47.07,4,.07s2.93-.05,4-.07v1l-.95.07c-.67.06-1,.16-1.05.36a6.08,6.08,0,0,0-.18,2.09Z"/><path class="cls-1" d="M170.7,56.25a6.36,6.36,0,0,0,.18,2.09c.11.2.39.31,1.06.36l.95.07v1c-1,0-2.47-.07-4-.07s-3,.05-4,.07v-1l1-.07c.67-.05.95-.16,1.06-.36a6.36,6.36,0,0,0,.18-2.09V45.76a6.36,6.36,0,0,0-.18-2.09c-.11-.2-.39-.3-1.06-.36l-1-.07v-1c1.06,0,2.47.07,4,.07s2.94-.05,4-.07v1l-.95.07c-.67.06-.95.16-1.06.36a6.36,6.36,0,0,0-.18,2.09Z"/><path class="cls-1" d="M177.17,45.76a6.36,6.36,0,0,0-.18-2.09c-.13-.25-.39-.38-1.06-.43l-1-.08v-.95c1,0,2.06.07,3.09.07.72,0,1.44-.05,2.16-.07.87,1.13,1.72,2.34,2.65,3.42l8,9.36V45.76a6.08,6.08,0,0,0-.18-2.09c-.13-.25-.38-.38-1.05-.43l-.95-.08v-.95c1,0,2,.07,3,.07s1.95-.05,2.93-.07v.95l-1,.08c-.67,0-.93.18-1.06.43a6.36,6.36,0,0,0-.18,2.09V57.44c0,.9.05,1.82.08,2.59l-.18.11-2.11-.34c-1.06-1.18-2.14-2.39-3.14-3.57l-8.33-10h-.06V56.25a6.36,6.36,0,0,0,.18,2.09c.13.25.39.38,1.06.43l1,.08v.95c-1,0-2-.07-2.93-.07s-2,.05-3,.07v-.95l1-.08c.67-.05.93-.18,1.06-.43a6.36,6.36,0,0,0,.18-2.09Z"/><path class="cls-1" d="M215.17,50.85c0,6.07-3.89,9.31-9.78,9.31s-9.26-3.13-9.26-9c0-6.07,3.89-9.31,9.78-9.31S215.17,45,215.17,50.85ZM200,50.72c0,4.25,1.78,8,5.4,8,4.79,0,5.92-3.55,5.92-7.41,0-4.24-1.78-8-5.4-8C201.12,43.29,200,46.86,200,50.72Z"/><path class="cls-1" d="M222.63,56.25a6.36,6.36,0,0,0,.18,2.09c.11.2.39.31,1.06.36l.95.07v1c-1.06,0-2.47-.07-4-.07s-3,.05-4,.07v-1l1-.07c.67-.05.95-.16,1.06-.36a6.36,6.36,0,0,0,.18-2.09V45.76a6.36,6.36,0,0,0-.18-2.09c-.11-.2-.39-.3-1.06-.36l-1-.07v-1c1.05,0,2.47.07,4,.07s2.93-.05,4-.07v1l-.95.07c-.67.06-1,.16-1.06.36a6.36,6.36,0,0,0-.18,2.09Z"/><path class="cls-1" d="M228.6,54.53l.18,2.26a5.27,5.27,0,0,0,4,2c2.19,0,4-1.15,4-3.39,0-1.11-.67-2-2.13-2.39l-3.61-1.08c-2.16-.65-3.75-2.17-3.75-4.38,0-4.11,3.06-5.68,6.79-5.68a13.26,13.26,0,0,1,4.78.87l.13.31a14.91,14.91,0,0,0-.36,3.65h-1.05l-.16-2.11a4.87,4.87,0,0,0-3.42-1.41c-2.39,0-3.52,1.39-3.52,3.11,0,1.16.82,2,2.73,2.5l2.93.77c2.36.62,3.88,2.11,3.88,4.42,0,4.38-3.62,6.2-7.54,6.2A12.35,12.35,0,0,1,227.19,59a21.9,21.9,0,0,0,.39-4.45Z"/><path class="cls-1" d="M81.94,88l.11.11a13.67,13.67,0,0,0,.1,2.34C82.22,91,83.87,93,87.78,93s6.28-2,6.28-5.34c0-7-13.72-.84-13.72-10.38,0-4.78,3.45-7.79,9.32-7.79a15.76,15.76,0,0,1,6.61,1.44l.1.24a23.77,23.77,0,0,0-.59,4.72l-.11.1-1.12-.1-.1-.11c0-2.09,0-2.48-.21-2.72a6.86,6.86,0,0,0-4.93-1.75c-3.77,0-5.48,2.13-5.48,4.61,0,3.15,1.68,3.7,7.41,4.58,4.05.59,6.32,2.06,6.32,5.69,0,3.81-3,8.63-10.62,8.63a14.9,14.9,0,0,1-6.5-1.47l-.1-.21a35.37,35.37,0,0,0,.38-5l.11-.11Z"/><path class="cls-1" d="M112.2,76.75h2v.49L109.65,84a17.08,17.08,0,0,0-1.36,2.57v4.2a6.28,6.28,0,0,0,.18,2.08c.1.21.39.31,1.06.36l1,.08v1c-1.06,0-2.47-.08-4-.08s-3,0-4,.08v-1l1-.08c.67,0,.95-.15,1-.36a6,6,0,0,0,.18-2.08V87.14A15.68,15.68,0,0,0,103.53,85l-2.6-4.2A16.07,16.07,0,0,0,99.6,79a2.42,2.42,0,0,0-2-.85v-1l4.09-.93a8,8,0,0,1,2.93,3.5L107.36,85Z"/><path class="cls-1" d="M116.71,89l.18,2.27a5.26,5.26,0,0,0,4,2c2.19,0,4-1.16,4-3.4,0-1.1-.67-2-2.13-2.39l-3.6-1.08c-2.16-.64-3.76-2.16-3.76-4.37,0-4.12,3.06-5.69,6.79-5.69a13.29,13.29,0,0,1,4.79.88l.12.31a14.86,14.86,0,0,0-.36,3.65h-1L125.61,79a4.88,4.88,0,0,0-3.43-1.42c-2.39,0-3.52,1.39-3.52,3.12,0,1.15.82,2,2.73,2.49l2.93.77c2.37.62,3.88,2.11,3.88,4.43,0,4.37-3.62,6.2-7.53,6.2a12.4,12.4,0,0,1-5.38-1.19,21.84,21.84,0,0,0,.39-4.45Z"/><path class="cls-1" d="M139.67,90.72a6.28,6.28,0,0,0,.18,2.08c.1.21.39.31,1.05.36l1,.08v1c-1.06,0-2.47-.08-4-.08s-3,0-4,.08v-1l.95-.08c.67,0,.95-.15,1.05-.36a6,6,0,0,0,.18-2.08V78.27h-3c-.69,0-1.41,0-1.59.23a1.12,1.12,0,0,0-.23.62l-.13,1.77h-1a28.65,28.65,0,0,0-.34-4.09l.16-.13c2.7,0,5.38.08,8,.08s5.3,0,8-.08l.16.13a28.65,28.65,0,0,0-.34,4.09h-1l-.12-1.77a1.12,1.12,0,0,0-.24-.62c-.18-.23-.9-.23-1.59-.23h-3Z"/><path class="cls-1" d="M153.7,84.42c.59,0,1.15,0,1.72,0h1.7c.9,0,1.41,0,1.46-.54l.16-1.47h1c0,.93-.08,1.83-.08,2.75s.05,1.86.08,2.78h-1l-.16-1.28c-.07-.73-.56-1-1.46-1h-1.7c-.57,0-1.13,0-1.72.08V92.7c1.08,0,2.18.08,3.29.08a8.89,8.89,0,0,0,3.14-.44l.59-2.42h1L161.44,94l-.13.21c-1,.08-2.54.1-3.93.1-.9,0-1.75,0-2.4,0-1,0-2.11-.08-3.16-.08s-2.14,0-3.09.08v-.59l.83-.47c.41-.23.51-.67.51-1.46V80.22a6,6,0,0,0-.18-2.08c-.13-.26-.38-.39-1-.44l-1-.08v-1c.85,0,1.6,0,2.27,0s1.26,0,1.75,0c2.41,0,4.16,0,5.63-.08l1.36,0a23.46,23.46,0,0,1,2.4.1l.15.18-.36,3.65h-.92L160,78.65c0-.38-1.78-.49-3-.49s-2.21,0-3.29.08Z"/><path class="cls-1" d="M185.51,90.72a6.28,6.28,0,0,0,.18,2.08c.11.21.39.31,1.06.36l.95.08v1c-1,0-2.47-.08-4-.08s-3,0-4,.08v-1l1-.08c.67,0,.95-.15,1.06-.36a6.28,6.28,0,0,0,.18-2.08V80.12h0l-5.25,10.93c-.54,1.11-1.13,2.37-1.55,3.4h-.87c-.26-.72-.59-1.42-.93-2.14l-5.86-12.22h0V90.72a6,6,0,0,0,.18,2.08c.13.26.38.39,1.05.44l.95.08v1c-1,0-1.95-.08-2.93-.08s-2,0-3,.08v-1l.95-.08c.67,0,.93-.18,1.06-.44a6.28,6.28,0,0,0,.18-2.08V80.22a6.28,6.28,0,0,0-.18-2.08c-.13-.26-.39-.39-1.06-.44l-.95-.08v-1c1,0,2.06.08,3.09.08s2.06,0,3.09-.08c.46,1.06,1.39,3,1.93,4.14l4.06,8.49,4.71-9.72c.46-1,.87-2,1.26-2.91,1.26,0,2.21.08,3,.08s1.69,0,3-.08v1l-.95.08c-.67,0-.93.18-1.06.44a6.28,6.28,0,0,0-.18,2.08Z"/></svg>